Coordinates
version=1
nRows=15
nColumns=42
inDegrees=yes

Units are S.I. units (second, meters, Newtons, ...)
If the header above contains a line with 'inDegrees', this indicates whether rotational values are in degrees (yes) or radians (no).

endheader
time	pelvis_tilt	pelvis_list	pelvis_rotation	pelvis_tx	pelvis_ty	pelvis_tz	hip_flexion_r	hip_adduction_r	hip_rotation_r	knee_angle_r	knee_adduction_r	knee_angle_r_beta	ankle_angle_r	subtalar_angle_r	mtp_angle_r	hip_flexion_l	hip_adduction_l	hip_rotation_l	knee_angle_l	knee_adduction_l	knee_angle_l_beta	ankle_angle_l	subtalar_angle_l	mtp_angle_l	lumbar_extension	lumbar_bending	lumbar_rotation	arm_flex_r	arm_add_r	arm_rot_r	elbow_flex_r	pro_sup_r	wrist_flex_r	wrist_dev_r	arm_flex_l	arm_add_l	arm_rot_l	elbow_flex_l	pro_sup_l	wrist_flex_l	wrist_dev_l
      0.63000000	      8.41771472	     -2.73240816	     -1.94265284	     -1.32852872	      0.91217833	      0.26482577	      6.09152656	     -1.98491923	    -18.13040843	     41.91023018	      1.16360982	      0.73147151	     23.22817010	      3.44617321	     -9.61530321	     23.17724851	     -7.33387743	    -11.05705388	     44.19485868	     -4.82096744	      0.77134580	      7.47362862	     -8.20314376	     -9.61530321	    -21.61699397	      6.61056739	     -4.60450031	      7.75096407	    -13.31633789	      8.16990136	     43.67882117	     90.00000001	      0.00000000	      0.00000000	    -14.09883108	    -12.66421442	      3.70076162	     59.70445028	     90.00000001	      0.00000000	      0.00000000
      0.64000000	      8.45898299	     -2.77380599	     -2.08336054	     -1.32599187	      0.91189767	      0.26450545	      5.95370908	     -1.90881947	    -17.96457559	     42.00548367	      1.05489978	      0.73313399	     23.25306800	      3.40047683	     -9.61085118	     22.93716751	     -7.35750330	    -11.18023564	     44.24441670	     -4.88063548	      0.77221075	      7.52423389	     -8.28002925	     -9.61085118	    -21.51127395	      6.41312886	     -4.70724871	      7.52091411	    -13.12110756	      8.28821492	     43.69903468	     90.00000001	      0.00000000	      0.00000000	    -14.20637679	    -12.68426014	      3.64652407	     59.54543948	     90.00000001	      0.00000000	      0.00000000
      0.65000000	      8.53119661	     -2.73555738	     -2.27512379	     -1.32348590	      0.91178633	      0.26416312	      5.78799446	     -1.91374609	    -17.72006992	     42.09138384	      0.93366132	      0.73463323	     23.34346537	      3.29386364	     -9.60422483	     22.62420502	     -7.36121149	    -11.49840738	     44.24598383	     -4.88627284	      0.77223810	      7.67435796	     -8.43156514	     -9.60422483	    -21.43771305	      6.11824509	     -4.83778259	      7.37745830	    -12.89617184	      8.40757843	     43.81204560	     90.00000001	      0.00000000	      0.00000000	    -14.28504796	    -12.73920957	      3.53530131	     59.25057111	     90.00000001	      0.00000000	      0.00000000
      0.66000000	      8.66239285	     -2.62232498	     -2.50716432	     -1.32098869	      0.91191490	      0.26351408	      5.51194832	     -2.09992820	    -17.11554085	     42.14896553	      1.20922079	      0.73563822	     23.65144036	      2.74459291	     -9.56763582	     22.21387547	     -7.20865425	    -12.26947424	     44.13165258	     -5.26496730	      0.77024264	      7.98566022	     -8.66673902	     -9.56763582	    -21.44672360	      5.78887980	     -4.84446410	      7.12969104	    -12.88125121	      8.60286485	     44.32857945	     90.00000001	      0.00000000	      0.00000000	    -13.95903117	    -12.45965336	      2.99508970	     58.10893010	     90.00000001	      0.00000000	      0.00000000
      0.67000000	      8.64116025	     -2.59565793	     -2.61160326	     -1.31858871	      0.91191347	      0.26294056	      5.40448831	     -2.07796309	    -16.96017699	     42.14234785	      1.05784797	      0.73552272	     23.63988922	      2.69488807	     -9.56309275	     22.04582753	     -7.23377263	    -12.41043937	     44.17395225	     -5.14595407	      0.77098091	      8.02558878	     -8.66577612	     -9.56309275	    -21.28581664	      5.55320792	     -4.98821940	      6.93646778	    -12.70859357	      8.64640414	     44.37388434	     90.00000001	      0.00000000	      0.00000000	    -14.00138903	    -12.49227121	      2.92595022	     57.95047032	     90.00000001	      0.00000000	      0.00000000
      0.68000000	      8.63626250	     -2.51088393	     -2.75418714	     -1.31619381	      0.91208418	      0.26228521	      5.25571986	     -2.14435326	    -16.79480596	     42.07311590	      0.93681034	      0.73431440	     23.66145745	      2.60311248	     -9.55704396	     21.81959059	     -7.20617000	    -12.68406325	     44.16230855	     -5.04290099	      0.77077769	      8.15276566	     -8.70773688	     -9.55704396	    -21.15184893	      5.26568185	     -5.11534167	      6.76295119	    -12.48448650	      8.67238090	     44.48422094	     90.00000001	      0.00000000	      0.00000000	    -14.03797349	    -12.53834426	      2.81342029	     57.66525902	     90.00000001	      0.00000000	      0.00000000
      0.69000000	      8.64239910	     -2.40009801	     -2.88287935	     -1.31381586	      0.91241450	      0.26148541	      5.06706186	     -2.26657279	    -16.63016217	     41.95375886	      0.87070978	      0.73223123	     23.70062609	      2.48769068	     -9.54949128	     21.54921606	     -7.13495156	    -13.04695093	     44.08510209	     -5.00164275	      0.76943018	      8.33386780	     -8.76102972	     -9.54949128	    -21.03978809	      4.97931776	     -5.23308700	      6.58800297	    -12.29225544	      8.65090247	     44.64096077	     90.00000001	      0.00000000	      0.00000000	    -14.00854600	    -12.54576065	      2.66596575	     57.27536413	     90.00000001	      0.00000000	      0.00000000
      0.70000000	      8.78714815	     -2.26117510	     -3.05455632	     -1.31144946	      0.91309767	      0.26052152	      4.66151624	     -2.49012789	    -16.21639201	     41.77247655	      1.07294340	      0.72906725	     23.74809916	      2.08282370	     -9.50757113	     21.08961480	     -7.00936452	    -13.94747359	     43.85930988	     -5.33326051	      0.76548937	      8.69440109	     -8.46351321	     -9.50757113	    -21.10076489	      4.66554798	     -5.16990653	      6.15785958	    -12.19966356	      8.19399026	     45.38919452	     90.00000001	      0.00000000	      0.00000000	    -13.39010628	    -12.12915640	      1.94704842	     55.65583168	     90.00000001	      0.00000000	      0.00000000
      0.71000000	      8.66038942	     -2.17816278	     -3.14996990	     -1.30923147	      0.91343188	      0.25959202	      4.59990305	     -2.56689284	    -16.15544448	     41.58895419	      0.93751571	      0.72586418	     23.73093641	      2.05381606	     -9.50270717	     20.98290421	     -7.02709793	    -14.17622521	     43.81627677	     -5.11883359	      0.76473830	      8.75007751	     -8.42471616	     -9.50270717	    -20.87302318	      4.43843040	     -5.28050627	      5.96446110	    -12.04986493	      8.18367488	     45.43867304	     90.00000001	      0.00000000	      0.00000000	    -13.39657347	    -12.16578966	      1.86491782	     55.52129568	     90.00000001	      0.00000000	      0.00000000
      0.72000000	      8.55480487	     -2.08111949	     -3.26413226	     -1.30701857	      0.91388198	      0.25857508	      4.48122290	     -2.70009677	    -16.12293134	     41.35755476	      0.83797983	      0.72182550	     23.71215346	      2.03502053	     -9.49779784	     20.81337110	     -7.01446806	    -14.47182504	     43.69498620	     -4.96396694	      0.76262138	      8.84947290	     -8.41495978	     -9.49779784	    -20.67267427	      4.20012749	     -5.35953806	      5.79634787	    -11.90240037	      8.15723996	     45.52106359	     90.00000001	      0.00000000	      0.00000000	    -13.38615206	    -12.19134300	      1.77284893	     55.33215735	     90.00000001	      0.00000000	      0.00000000
      0.73000000	      8.46353285	     -1.94075872	     -3.38357456	     -1.30483786	      0.91450639	      0.25751834	      4.31835979	     -2.88617242	    -16.10876014	     41.04172699	      0.74735485	      0.71631327	     23.67993794	      2.04014802	     -9.49194582	     20.57976431	     -6.97082213	    -14.89260292	     43.48347379	     -4.81462830	      0.75892979	      8.98756157	     -8.41618595	     -9.49194582	    -20.50208333	      3.92484854	     -5.42171634	      5.59971843	    -11.75367519	      8.10712859	     45.64078641	     90.00000001	      0.00000000	      0.00000000	    -13.34529983	    -12.20442178	      1.65352851	     55.06296226	     90.00000001	      0.00000000	      0.00000000
      0.74000000	      8.57329941	     -1.81415595	     -3.55895358	     -1.30248422	      0.91550142	      0.25626629	      3.87071159	     -3.12777679	    -16.22086832	     40.64502645	      0.62872226	      0.70938954	     23.66218083	      2.64807241	     -9.40861656	     20.07171863	     -6.90834050	    -16.23692342	     43.09066014	     -5.34164761	      0.75207390	      9.44251043	     -7.08348813	     -9.40861656	    -20.56607466	      3.69684040	     -5.16897976	      4.88448272	    -11.66474099	      7.06842359	     46.92382010	     90.00000001	      0.00000000	      0.00000000	    -12.46638963	    -11.56199453	      0.43920009	     52.97262933	     90.00000001	      0.00000000	      0.00000000
      0.75000000	      8.52358109	     -1.66771724	     -3.69074851	     -1.30033637	      0.91626499	      0.25505505	      3.62803252	     -3.37719327	    -16.29585365	     40.28247601	      0.56426106	      0.70306184	     23.60389301	      2.80236803	     -9.38802139	     19.73733581	     -6.84053704	    -16.74601916	     42.78985619	     -5.23861114	      0.74682388	      9.65448817	     -7.04335017	     -9.38802139	    -20.46437693	      3.43106801	     -5.19035835	      4.75299997	    -11.54914950	      7.02061829	     46.97674258	     90.00000001	      0.00000000	      0.00000000	    -12.44513567	    -11.57386144	      0.27761115	     52.88105844	     90.00000001	      0.00000000	      0.00000000
      0.76000000	      8.40485300	     -1.53344348	     -3.81829782	     -1.29825844	      0.91699026	      0.25381378	      3.46874963	     -3.58514063	    -16.36121122	     39.90913221	      0.45584566	      0.69654576	     23.55059119	      2.98918518	     -9.37419944	     19.48678948	     -6.79810166	    -17.24522268	     42.49515387	     -5.11550089	      0.74168035	      9.76122058	     -7.01751617	     -9.37419944	    -20.29878333	      3.19838901	     -5.19177048	      4.57292855	    -11.48047640	      7.00619287	     47.05605719	     90.00000001	      0.00000000	      0.00000000	    -12.39949867	    -11.57780992	      0.15748581	     52.73088810	     90.00000001	      0.00000000	      0.00000000
      0.77000000	      8.39766842	     -1.39209998	     -3.96533499	     -1.29614708	      0.91785695	      0.25247807	      3.17155728	     -3.89545584	    -16.58498594	     39.53433235	      0.38286421	      0.69000427	     23.49186600	      3.59367286	     -9.34196299	     19.09337183	     -6.76258315	    -18.04028938	     42.16944591	     -5.13462770	      0.73599567	      9.85011782	     -6.80102817	     -9.34196299	    -20.27154866	      2.96453525	     -5.12420316	      4.36566194	    -11.48902955	      6.98516358	     47.35590783	     90.00000001	      0.00000000	      0.00000000	    -12.20117875	    -11.48579672	     -0.10650246	     52.33609934	     90.00000001	      0.00000000	      0.00000000
